{
	"asset":{
		"generator":"Khronos glTF Blender I/O v4.1.63",
		"version":"2.0"
	},
	"scene":0,
	"scenes":[
		{
			"name":"Scene",
			"nodes":[
				12
			]
		}
	],
	"nodes":[
		{
			"mesh":0,
			"name":"Algae1_Algae 2_0"
		},
		{
			"children":[
				0
			],
			"name":"Algae1",
			"rotation":[
				-0.70710688829422,
				0,
				0,
				0.7071066498756409
			],
			"scale":[
				100,
				99.99999237060547,
				99.99999237060547
			],
			"translation":[
				0,
				5.038158416748047,
				-39.66463088989258
			]
		},
		{
			"mesh":1,
			"name":"Algae2_Algae 1_0"
		},
		{
			"children":[
				2
			],
			"name":"Algae2",
			"rotation":[
				-0.70710688829422,
				0,
				0,
				0.7071066498756409
			],
			"scale":[
				93.45475769042969,
				93.45475006103516,
				93.45475006103516
			],
			"translation":[
				-6.540018081665039,
				-18.943613052368164,
				168.61203002929688
			]
		},
		{
			"mesh":2,
			"name":"Aquarium_Aquarium_0"
		},
		{
			"children":[
				4
			],
			"name":"Aquarium",
			"rotation":[
				-0.70710688829422,
				0,
				0,
				0.7071066498756409
			],
			"scale":[
				100,
				99.99999237060547,
				99.99999237060547
			]
		},
		{
			"mesh":3,
			"name":"Dirt_Dirt_0"
		},
		{
			"children":[
				6
			],
			"name":"Dirt",
			"rotation":[
				-0.70710688829422,
				0,
				0,
				0.7071066498756409
			],
			"scale":[
				98.74451446533203,
				99.99999237060547,
				99.99999237060547
			],
			"translation":[
				0,
				-89.34363555908203,
				0
			]
		},
		{
			"mesh":4,
			"name":"Root_Root_0"
		},
		{
			"children":[
				8
			],
			"name":"Root",
			"rotation":[
				-0.70710688829422,
				0,
				0,
				0.7071066498756409
			],
			"scale":[
				100,
				99.99999237060547,
				99.99999237060547
			],
			"translation":[
				-10.615462303161621,
				-71.42939758300781,
				-114.2046127319336
			]
		},
		{
			"children":[
				1,
				3,
				5,
				7,
				9
			],
			"name":"RootNode"
		},
		{
			"children":[
				10
			],
			"name":"131a3b2d6f2a4b56bc7cd1f35b57ef72.fbx",
			"rotation":[
				0.70710688829422,
				0,
				0,
				0.7071066498756409
			]
		},
		{
			"children":[
				11
			],
			"name":"Sketchfab_model",
			"rotation":[
				-0.70710688829422,
				0,
				0,
				0.7071066498756409
			]
		}
	],
	"materials":[
		{
			"doubleSided":true,
			"name":"Algae_2",
			"occlusionTexture":{
				"index":0
			},
			"pbrMetallicRoughness":{
				"baseColorTexture":{
					"index":1
				},
				"metallicRoughnessTexture":{
					"index":0
				}
			}
		},
		{
			"doubleSided":true,
			"name":"Algae_1",
			"occlusionTexture":{
				"index":2
			},
			"pbrMetallicRoughness":{
				"baseColorTexture":{
					"index":3
				},
				"metallicRoughnessTexture":{
					"index":2
				},
				"roughnessFactor":0.9956173896789551
			}
		},
		{
			"alphaMode":"BLEND",
			"doubleSided":true,
			"emissiveFactor":[
				1,
				1,
				1
			],
			"emissiveTexture":{
				"index":4
			},
			"name":"Aquarium",
			"occlusionTexture":{
				"index":5
			},
			"pbrMetallicRoughness":{
				"baseColorFactor":[
					1,
					1,
					1,
					0.10000000149011612
				],
				"baseColorTexture":{
					"index":6
				},
				"metallicRoughnessTexture":{
					"index":5
				}
			}
		},
		{
			"doubleSided":true,
			"name":"Dirt",
			"normalTexture":{
				"index":7
			},
			"occlusionTexture":{
				"index":8
			},
			"pbrMetallicRoughness":{
				"baseColorTexture":{
					"index":9
				},
				"metallicRoughnessTexture":{
					"index":8
				}
			}
		},
		{
			"doubleSided":true,
			"name":"Root",
			"normalTexture":{
				"index":10
			},
			"occlusionTexture":{
				"index":11
			},
			"pbrMetallicRoughness":{
				"baseColorTexture":{
					"index":12
				},
				"metallicRoughnessTexture":{
					"index":11
				}
			}
		}
	],
	"meshes":[
		{
			"name":"Algae1_Algae 2_0",
			"primitives":[
				{
					"attributes":{
						"POSITION":0,
						"NORMAL":1,
						"TEXCOORD_0":2
					},
					"indices":3,
					"material":0
				}
			]
		},
		{
			"name":"Algae2_Algae 1_0",
			"primitives":[
				{
					"attributes":{
						"POSITION":4,
						"NORMAL":5,
						"TEXCOORD_0":6
					},
					"indices":7,
					"material":1
				}
			]
		},
		{
			"name":"Aquarium_Aquarium_0",
			"primitives":[
				{
					"attributes":{
						"POSITION":8,
						"NORMAL":9,
						"TEXCOORD_0":10
					},
					"indices":11,
					"material":2
				}
			]
		},
		{
			"name":"Dirt_Dirt_0",
			"primitives":[
				{
					"attributes":{
						"POSITION":12,
						"NORMAL":13,
						"TEXCOORD_0":14
					},
					"indices":15,
					"material":3
				}
			]
		},
		{
			"name":"Root_Root_0",
			"primitives":[
				{
					"attributes":{
						"POSITION":16,
						"NORMAL":17,
						"TEXCOORD_0":18
					},
					"indices":19,
					"material":4
				}
			]
		}
	],
	"textures":[
		{
			"sampler":0,
			"source":0
		},
		{
			"sampler":0,
			"source":1
		},
		{
			"sampler":0,
			"source":2
		},
		{
			"sampler":0,
			"source":3
		},
		{
			"sampler":0,
			"source":4
		},
		{
			"sampler":0,
			"source":5
		},
		{
			"sampler":0,
			"source":6
		},
		{
			"sampler":0,
			"source":7
		},
		{
			"sampler":0,
			"source":8
		},
		{
			"sampler":0,
			"source":9
		},
		{
			"sampler":0,
			"source":10
		},
		{
			"sampler":0,
			"source":11
		},
		{
			"sampler":0,
			"source":12
		}
	],
	"images":[
		{
			"mimeType":"image/png",
			"name":"Algae_2_metallicRoughness",
			"uri":"Algae_2_metallicRoughness.png"
		},
		{
			"mimeType":"image/png",
			"name":"Algae_2_baseColor",
			"uri":"Algae_2_baseColor.png"
		},
		{
			"mimeType":"image/png",
			"name":"Algae_1_metallicRoughness",
			"uri":"Algae_1_metallicRoughness.png"
		},
		{
			"mimeType":"image/png",
			"name":"Algae_1_baseColor",
			"uri":"Algae_1_baseColor.png"
		},
		{
			"mimeType":"image/png",
			"name":"Aquarium_emissive",
			"uri":"Aquarium_emissive.png"
		},
		{
			"mimeType":"image/png",
			"name":"Aquarium_metallicRoughness",
			"uri":"Aquarium_metallicRoughness.png"
		},
		{
			"mimeType":"image/png",
			"name":"Aquarium_baseColor",
			"uri":"Aquarium_baseColor.png"
		},
		{
			"mimeType":"image/png",
			"name":"Dirt_normal",
			"uri":"Dirt_normal.png"
		},
		{
			"mimeType":"image/png",
			"name":"Dirt_metallicRoughness",
			"uri":"Dirt_metallicRoughness.png"
		},
		{
			"mimeType":"image/png",
			"name":"Dirt_baseColor",
			"uri":"Dirt_baseColor.png"
		},
		{
			"mimeType":"image/png",
			"name":"Root_normal",
			"uri":"Root_normal.png"
		},
		{
			"mimeType":"image/png",
			"name":"Root_metallicRoughness",
			"uri":"Root_metallicRoughness.png"
		},
		{
			"mimeType":"image/png",
			"name":"Root_baseColor",
			"uri":"Root_baseColor.png"
		}
	],
	"accessors":[
		{
			"bufferView":0,
			"componentType":5126,
			"count":520,
			"max":[
				0.7341843843460083,
				0.8599369525909424,
				0.657221794128418
			],
			"min":[
				-0.9753556251525879,
				-0.7304151654243469,
				-0.4668383002281189
			],
			"type":"VEC3"
		},
		{
			"bufferView":1,
			"componentType":5126,
			"count":520,
			"type":"VEC3"
		},
		{
			"bufferView":2,
			"componentType":5126,
			"count":520,
			"type":"VEC2"
		},
		{
			"bufferView":3,
			"componentType":5123,
			"count":1860,
			"type":"SCALAR"
		},
		{
			"bufferView":4,
			"componentType":5126,
			"count":780,
			"max":[
				1.0256783962249756,
				1.6143136024475098,
				1.2521647214889526
			],
			"min":[
				-1.0179048776626587,
				-0.6312645673751831,
				-0.8050268888473511
			],
			"type":"VEC3"
		},
		{
			"bufferView":5,
			"componentType":5126,
			"count":780,
			"type":"VEC3"
		},
		{
			"bufferView":6,
			"componentType":5126,
			"count":780,
			"type":"VEC2"
		},
		{
			"bufferView":7,
			"componentType":5123,
			"count":2790,
			"type":"SCALAR"
		},
		{
			"bufferView":8,
			"componentType":5126,
			"count":24,
			"max":[
				1.0000004768371582,
				2.3485043048858643,
				1
			],
			"min":[
				-1.0000003576278687,
				-2.3485047817230225,
				-1
			],
			"type":"VEC3"
		},
		{
			"bufferView":9,
			"componentType":5126,
			"count":24,
			"type":"VEC3"
		},
		{
			"bufferView":10,
			"componentType":5126,
			"count":24,
			"type":"VEC2"
		},
		{
			"bufferView":11,
			"componentType":5123,
			"count":36,
			"type":"SCALAR"
		},
		{
			"bufferView":12,
			"componentType":5126,
			"count":148,
			"max":[
				1,
				2.335650682449341,
				0.19158604741096497
			],
			"min":[
				-1.0008171796798706,
				-2.335650682449341,
				-0.09495706856250763
			],
			"type":"VEC3"
		},
		{
			"bufferView":13,
			"componentType":5126,
			"count":148,
			"type":"VEC3"
		},
		{
			"bufferView":14,
			"componentType":5126,
			"count":148,
			"type":"VEC2"
		},
		{
			"bufferView":15,
			"componentType":5123,
			"count":708,
			"type":"SCALAR"
		},
		{
			"bufferView":16,
			"componentType":5126,
			"count":110,
			"max":[
				1.0790220499038696,
				1.1341155767440796,
				0.4128658175468445
			],
			"min":[
				-0.8365501761436462,
				-1.600339412689209,
				-0.22041825950145721
			],
			"type":"VEC3"
		},
		{
			"bufferView":17,
			"componentType":5126,
			"count":110,
			"type":"VEC3"
		},
		{
			"bufferView":18,
			"componentType":5126,
			"count":110,
			"type":"VEC2"
		},
		{
			"bufferView":19,
			"componentType":5123,
			"count":474,
			"type":"SCALAR"
		}
	],
	"bufferViews":[
		{
			"buffer":0,
			"byteLength":6240,
			"byteOffset":0,
			"target":34962
		},
		{
			"buffer":0,
			"byteLength":6240,
			"byteOffset":6240,
			"target":34962
		},
		{
			"buffer":0,
			"byteLength":4160,
			"byteOffset":12480,
			"target":34962
		},
		{
			"buffer":0,
			"byteLength":3720,
			"byteOffset":16640,
			"target":34963
		},
		{
			"buffer":0,
			"byteLength":9360,
			"byteOffset":20360,
			"target":34962
		},
		{
			"buffer":0,
			"byteLength":9360,
			"byteOffset":29720,
			"target":34962
		},
		{
			"buffer":0,
			"byteLength":6240,
			"byteOffset":39080,
			"target":34962
		},
		{
			"buffer":0,
			"byteLength":5580,
			"byteOffset":45320,
			"target":34963
		},
		{
			"buffer":0,
			"byteLength":288,
			"byteOffset":50900,
			"target":34962
		},
		{
			"buffer":0,
			"byteLength":288,
			"byteOffset":51188,
			"target":34962
		},
		{
			"buffer":0,
			"byteLength":192,
			"byteOffset":51476,
			"target":34962
		},
		{
			"buffer":0,
			"byteLength":72,
			"byteOffset":51668,
			"target":34963
		},
		{
			"buffer":0,
			"byteLength":1776,
			"byteOffset":51740,
			"target":34962
		},
		{
			"buffer":0,
			"byteLength":1776,
			"byteOffset":53516,
			"target":34962
		},
		{
			"buffer":0,
			"byteLength":1184,
			"byteOffset":55292,
			"target":34962
		},
		{
			"buffer":0,
			"byteLength":1416,
			"byteOffset":56476,
			"target":34963
		},
		{
			"buffer":0,
			"byteLength":1320,
			"byteOffset":57892,
			"target":34962
		},
		{
			"buffer":0,
			"byteLength":1320,
			"byteOffset":59212,
			"target":34962
		},
		{
			"buffer":0,
			"byteLength":880,
			"byteOffset":60532,
			"target":34962
		},
		{
			"buffer":0,
			"byteLength":948,
			"byteOffset":61412,
			"target":34963
		}
	],
	"samplers":[
		{
			"magFilter":9729,
			"minFilter":9987
		}
	],
	"buffers":[
		{
			"byteLength":62360,
			"uri":"aq.bin"
		}
	]
}
